<svg xmlns="http://www.w3.org/2000/svg" viewBox="0 0 24 24" fill="currentColor" width="24" height="24">
  <path d="M12 .5C5.65.5.5 5.65.5 12c0 5.08 3.29 9.39 7.86 10.92.57.1.78-.25.78-.55 0-.27-.01-1-.02-1.96-3.2.7-3.88-1.54-3.88-1.54-.53-1.35-1.3-1.71-1.3-1.71-1.06-.72.08-.71.08-.71 1.17.08 1.79 1.2 1.79 1.2 1.04 1.78 2.72 1.27 3.38.97.1-.75.41-1.27.75-1.56-2.56-.29-5.26-1.28-5.26-5.7 0-1.26.45-2.28 1.19-3.09-.12-.29-.52-1.45.11-3.03 0 0 .97-.31 3.18 1.18a11.06 11.06 0 012.9-.39c.98.01 1.97.13 2.9.39 2.2-1.49 3.17-1.18 3.17-1.18.63 1.58.23 2.74.12 3.03.74.81 1.19 1.83 1.19 3.09 0 4.43-2.71 5.41-5.29 5.69.42.36.79 1.07.79 2.16 0 1.56-.01 2.82-.01 3.21 0 .3.21.66.79.55C20.71 21.39 24 17.08 24 12 24 5.65 18.35.5 12 .5z"/>
</svg>