<svg xmlns="http://www.w3.org/2000/svg" viewBox="0 0 180 180">
  <defs>
    <linearGradient id="armGradient" x1="12%" y1="0%" x2="88%" y2="100%">
      <stop offset="0%" stop-color="#9fa8ff" />
      <stop offset="55%" stop-color="#5b6bff" />
      <stop offset="100%" stop-color="#2730a5" />
    </linearGradient>
    <radialGradient id="jointGlow" cx="50%" cy="50%" r="50%">
      <stop offset="0%" stop-color="#c7cfff" />
      <stop offset="100%" stop-color="#3948d8" />
    </radialGradient>
  </defs>
  <rect x="18" y="120" width="144" height="28" rx="14" fill="rgba(40,46,120,0.4)"/>
  <path d="M38 116c0-42 28-74 68-80l18 18-20 24c18 8 30 22 32 44l-24 4c-2-16-12-26-30-30l-18 28z" fill="url(#armGradient)" stroke="#1a1f60" stroke-width="4" stroke-linecap="round" stroke-linejoin="round"/>
  <circle cx="64" cy="118" r="18" fill="url(#jointGlow)" stroke="#1a1f60" stroke-width="4" />
  <circle cx="118" cy="70" r="20" fill="url(#jointGlow)" stroke="#1a1f60" stroke-width="4" />
  <path d="M116 34c18 2 34 16 38 32l-26 6" fill="none" stroke="#8dd3ff" stroke-width="6" stroke-linecap="round"/>
  <path d="M128 110c10 6 24 18 30 30" fill="none" stroke="#8dd3ff" stroke-width="6" stroke-linecap="round"/>
  <circle cx="138" cy="140" r="10" fill="#8dd3ff" opacity="0.4" />
</svg>
