<svg xmlns="http://www.w3.org/2000/svg" width="24" height="24" viewBox="0 0 24 24" fill="currentColor">
  <path d="M22.46 6c-.77.35-1.6.58-2.46.69.89-.53 1.57-1.37 1.89-2.37-.83.5-1.75.86-2.72 1.06A4.15 4.15 0 0016.11 5c-2.3 0-4.16 1.88-4.16 4.2 0 .33.03.65.1.95-3.45-.17-6.52-1.85-8.57-4.39-.36.62-.57 1.34-.57 2.11 0 1.45.73 2.73 1.84 3.48-.68-.02-1.32-.2-1.88-.52v.05c0 2.03 1.44 3.72 3.36 4.11-.35.1-.72.15-1.1.15-.27 0-.53-.03-.79-.07.53 1.62 2.06 2.8 3.86 2.84A8.36 8.36 0 012 19.54 11.79 11.79 0 008.29 21c7.55 0 11.69-6.5 11.69-12.14 0-.18 0-.35-.01-.53.8-.58 1.5-1.3 2.06-2.12-.74.33-1.53.56-2.34.66z"/>
</svg>